<?xml version="1.0" standalone="no"?>
<!DOCTYPE svg PUBLIC "-//W3C//DTD SVG 20010904//EN"
 "http://www.w3.org/TR/2001/REC-SVG-20010904/DTD/svg10.dtd">
<svg version="1.0" xmlns="http://www.w3.org/2000/svg"
 width="225.000000pt" height="225.000000pt" viewBox="0 0 225.000000 225.000000"
 preserveAspectRatio="xMidYMid meet">

<g transform="translate(0.000000,225.000000) scale(0.100000,-0.100000)"
fill="#000000" stroke="none">
<path d="M1815 1970 c-38 -7 -847 -20 -1247 -20 -153 0 -188 -3 -188 -14 0
-10 21 -15 78 -18 96 -6 181 -47 247 -120 74 -83 88 -134 93 -343 l4 -180 -74
-12 c-105 -18 -141 -30 -195 -66 -90 -61 -120 -144 -67 -186 15 -12 40 -21 55
-21 56 0 91 70 52 101 -16 13 -17 12 -5 -3 33 -42 -23 -91 -74 -67 -62 30 -29
106 67 154 124 63 411 72 601 19 81 -23 67 -28 -23 -8 -104 22 -245 23 -286 1
-18 -10 -37 -25 -42 -35 -5 -9 -11 -118 -13 -242 -4 -191 -8 -234 -25 -287
-28 -86 -62 -140 -122 -197 -64 -59 -126 -87 -208 -94 -44 -3 -63 -9 -63 -18
0 -12 105 -14 633 -14 583 -1 794 -7 840 -25 16 -7 17 8 15 261 -3 232 -5 269
-18 272 -10 2 -20 -11 -29 -35 -46 -133 -159 -267 -271 -321 -106 -52 -189
-65 -380 -59 -91 3 -173 9 -182 12 -14 6 -10 15 25 58 24 29 54 77 67 107 24
53 25 63 28 324 l3 269 64 -7 c127 -13 225 -58 275 -128 24 -33 30 -51 30 -94
0 -34 -5 -58 -16 -68 -12 -13 -13 -16 -2 -16 24 0 69 56 79 96 12 55 11 387
-2 421 -10 29 -57 83 -70 83 -4 0 -5 -15 -3 -32 4 -24 -1 -42 -18 -68 -57 -83
-141 -107 -334 -93 -88 7 -109 10 -66 11 l62 2 0 240 c0 136 -5 261 -11 290
-6 28 -8 54 -5 57 3 3 74 8 158 10 122 5 166 2 217 -11 159 -41 268 -148 345
-338 16 -39 39 -50 50 -22 9 23 7 472 -1 477 -5 2 -26 0 -48 -3z m-1107 -69
c43 -22 83 -63 106 -107 15 -31 37 -114 30 -114 -2 0 -12 21 -24 47 -26 58
-81 126 -133 164 -46 33 -34 38 21 10z m786 -629 c-17 -32 -69 -72 -94 -72 -7
0 5 13 27 29 42 31 72 81 75 128 1 20 3 16 6 -12 2 -26 -3 -52 -14 -73z m-54
-112 c42 -22 94 -160 69 -184 -5 -6 -9 2 -9 22 0 44 -21 91 -60 135 -33 38
-33 45 0 27z m376 -517 c-44 -130 -145 -220 -291 -260 -70 -19 -265 -30 -265
-14 0 7 9 9 24 5 13 -3 66 -1 118 5 130 16 213 57 301 150 39 41 77 95 94 130
31 67 43 56 19 -16z m-1006 -130 c-35 -76 -87 -130 -154 -163 -63 -30 -67 -21
-7 18 26 18 64 51 84 75 36 44 96 152 98 178 1 8 4 1 6 -14 3 -18 -7 -53 -27
-94z"/>
</g>
</svg>
